<svg width="34" height="18" viewBox="0 0 34 18" fill="none" xmlns="http://www.w3.org/2000/svg">
<path d="M29.1539 5.04894H26.4432C25.5374 3.71894 24.3322 2.60714 22.9281 1.81421C21.3558 0.926281 19.5704 0.457031 17.765 0.457031H17C16.4451 0.457031 15.9953 0.90683 15.9953 1.46168V5.04894H4.8461C2.39815 5.04894 0.369644 6.87384 0.046173 9.23434C0.042542 9.25714 0.039429 9.27994 0.037354 9.30334C0.013748 9.49764 0 9.69474 0 9.89524V13.7367C0 14.2915 0.449799 14.7413 1.00465 14.7413H4.51978C4.96672 16.4679 6.5379 17.7465 8.40221 17.7465C10.2665 17.7465 11.8377 16.4679 12.2846 14.7413H21.7154C22.1626 16.4679 23.7335 17.7465 25.5978 17.7465C27.4621 17.7465 29.033 16.4679 29.4802 14.7413H32.9953C33.5502 14.7413 34 14.2915 34 13.7367V9.89524C34 7.22294 31.826 5.04894 29.1539 5.04894ZM18.0047 2.46994C20.2251 2.53354 22.3312 3.48054 23.8588 5.04894H18.0047V2.46994ZM2.00931 10.3938H3.56104C4.11589 10.3938 4.56569 9.94404 4.56569 9.38914C4.56569 8.83434 4.11589 8.38454 3.56104 8.38454H2.44691C2.94989 7.58844 3.83704 7.05844 4.8461 7.05844H15.9953V12.732H12.2846C11.8374 11.0055 10.2665 9.72664 8.40221 9.72664C6.5379 9.72664 4.96698 11.0055 4.51978 12.732H2.00931V10.3938ZM10.4027 13.7367C10.4027 14.8399 9.5054 15.7372 8.40221 15.7372C7.29898 15.7372 6.40172 14.8399 6.40172 13.7367C6.40172 12.6335 7.29898 11.7362 8.40221 11.7362C9.5054 11.7362 10.4027 12.6335 10.4027 13.7367ZM27.5983 13.7367C27.5983 14.8399 26.701 15.7372 25.5978 15.7372C24.4946 15.7372 23.5973 14.8399 23.5973 13.7367C23.5973 12.6335 24.4946 11.7362 25.5978 11.7362C26.701 11.7362 27.5983 12.6335 27.5983 13.7367ZM29.4802 12.732C29.0333 11.0055 27.4621 9.72664 25.5978 9.72664C23.7335 9.72664 22.1623 11.0055 21.7154 12.732H18.0047V7.05844H29.1539C30.1451 7.05844 31.019 7.57004 31.5264 8.34254H29.9715C29.4167 8.34254 28.9669 8.79234 28.9669 9.34714C28.9669 9.90204 29.4167 10.352 29.9715 10.352H31.9907V12.732H29.4802Z" fill="#050B20"/>
</svg>
