<svg width="30" height="19" viewBox="0 0 30 19" fill="none" xmlns="http://www.w3.org/2000/svg">
<path d="M24.5625 5.90224H23.3194C23.1795 5.90314 23.0409 5.87634 22.9115 5.82344C22.782 5.77054 22.6643 5.69264 22.565 5.59414L19.7387 2.76794C19.0418 2.07094 18.2132 1.51946 17.3012 1.14554C16.3891 0.771612 15.4119 0.582702 14.4263 0.589792H5.4375C4.02854 0.589792 2.67728 1.1495 1.681 2.14574C0.68471 3.14204 0.125 4.49334 0.125 5.90224V11.2147C0.125 12.0601 0.46083 12.8709 1.0586 13.4687C1.65637 14.0664 2.46712 14.4022 3.3125 14.4022C3.3125 15.3885 3.7043 16.3344 4.4017 17.0318C5.0991 17.7292 6.04498 18.121 7.03125 18.121C8.0175 18.121 8.9634 17.7292 9.6608 17.0318C10.3582 16.3344 10.75 15.3885 10.75 14.4022H18.2938C18.4112 15.2912 18.8478 16.1072 19.5221 16.6983C20.1965 17.2894 21.0626 17.6153 21.9594 17.6153C22.8561 17.6153 23.7223 17.2894 24.3966 16.6983C25.071 16.1072 25.5075 15.2912 25.625 14.4022H26.6875C27.5329 14.4022 28.3436 14.0664 28.9414 13.4687C29.5392 12.8709 29.875 12.0601 29.875 11.2147C29.875 9.80584 29.3153 8.45454 28.319 7.45824C27.3227 6.46204 25.9715 5.90224 24.5625 5.90224ZM14.4794 2.71474C15.1775 2.71354 15.869 2.84994 16.5144 3.11604C17.1598 3.38224 17.7464 3.77304 18.2406 4.26604L19.8769 5.90224H6.755C6.55699 5.90364 6.36253 5.84964 6.19357 5.74644C6.0246 5.64314 5.88785 5.49474 5.79875 5.31794L4.56625 2.85294C4.84804 2.76324 5.14178 2.71664 5.4375 2.71474H14.4794ZM2.25 11.2147V5.90224C2.25058 5.25704 2.44694 4.62724 2.81313 4.09604L3.87563 6.22104C4.13626 6.76314 4.54495 7.22034 5.05446 7.53994C5.56398 7.85964 6.15353 8.02854 6.755 8.02724H12.875V12.2772H10.3781C10.0797 11.6417 9.6064 11.1042 9.0137 10.7278C8.421 10.3513 7.7334 10.1514 7.03125 10.1514C6.3291 10.1514 5.64146 10.3513 5.04876 10.7278C4.45607 11.1042 3.98282 11.6417 3.68437 12.2772H3.3125C3.03071 12.2772 2.76046 12.1653 2.5612 11.9661C2.36194 11.7668 2.25 11.4965 2.25 11.2147ZM7.03125 15.4647C6.71604 15.4647 6.4079 15.3713 6.14581 15.1962C5.88372 15.021 5.67944 14.7721 5.55882 14.4809C5.43819 14.1897 5.40663 13.8692 5.46812 13.5601C5.52962 13.2509 5.68141 12.9669 5.9043 12.744C6.12719 12.5212 6.41117 12.3694 6.72032 12.3079C7.02948 12.2464 7.34993 12.2779 7.64115 12.3986C7.93237 12.5192 8.1813 12.7235 8.3564 12.9856C8.5315 13.2476 8.625 13.5558 8.625 13.871C8.625 14.2937 8.4571 14.6991 8.1582 14.9979C7.85932 15.2968 7.45394 15.4647 7.03125 15.4647ZM21.9062 15.4647C21.591 15.4647 21.2829 15.3713 21.0208 15.1962C20.7587 15.021 20.5544 14.7721 20.4338 14.4809C20.3132 14.1897 20.2816 13.8692 20.3431 13.5601C20.4046 13.2509 20.5564 12.9669 20.7793 12.744C21.0022 12.5212 21.2862 12.3694 21.5953 12.3079C21.9045 12.2464 22.2249 12.2779 22.5162 12.3986C22.8074 12.5192 23.0563 12.7235 23.2314 12.9856C23.4065 13.2476 23.5 13.5558 23.5 13.871C23.5 14.2937 23.3321 14.6991 23.0332 14.9979C22.7343 15.2968 22.3289 15.4647 21.9062 15.4647ZM26.6875 12.2772H25.2531C24.9547 11.6417 24.4814 11.1042 23.8887 10.7278C23.296 10.3513 22.6084 10.1514 21.9062 10.1514C21.2041 10.1514 20.5165 10.3513 19.9238 10.7278C19.3311 11.1042 18.8578 11.6417 18.5594 12.2772H15V8.02724H24.5625C25.0081 8.02964 25.4482 8.12544 25.8545 8.30844C26.2608 8.49154 26.6242 8.75764 26.9212 9.08974H26.6875C26.4057 9.08974 26.1355 9.20174 25.9362 9.40094C25.7369 9.60024 25.625 9.87054 25.625 10.1522C25.625 10.434 25.7369 10.7043 25.9362 10.9036C26.1355 11.1028 26.4057 11.2147 26.6875 11.2147H27.75C27.75 11.4965 27.6381 11.7668 27.4388 11.9661C27.2395 12.1653 26.9693 12.2772 26.6875 12.2772Z" fill="#050B20"/>
</svg>
