<svg width="34" height="17" viewBox="0 0 34 17" fill="none" xmlns="http://www.w3.org/2000/svg">
<path d="M30.759 6.67715L24.8898 5.69845C24.5466 5.14105 23.8644 4.13275 22.8725 3.12255C20.8927 1.10625 18.6133 0.0405273 16.2806 0.0405273H6.7225C5.16993 0.0405273 3.73044 0.879968 2.96577 2.23125L0.331898 6.88605C0.327648 6.89355 0.324461 6.90135 0.32041 6.90895C0.116676 7.27355 0 7.69315 0 8.13975V13.0446C0 13.5947 0.445984 14.0406 0.99609 14.0406H4.18632C4.65455 15.2658 5.848 16.1392 7.24339 16.1392C8.63879 16.1392 9.8322 15.2658 10.3005 14.0406H22.672C23.1402 15.2658 24.3336 16.1392 25.729 16.1392C27.1244 16.1392 28.3178 15.2658 28.786 14.0406H33.0039C33.554 14.0406 34 13.5947 34 13.0446V10.4076C34 8.53905 32.6077 6.93805 30.759 6.67715ZM22.3976 5.60805H15.222V2.03275H16.2806C19.104 2.03275 21.2363 4.12005 22.3976 5.60805ZM8.57371 2.03275H13.2299V5.60805H8.57371V2.03275ZM4.69964 3.21235C5.08811 2.52585 5.80012 2.08515 6.58152 2.03755V5.60805H3.34402L4.69964 3.21235ZM7.24339 14.147C6.53929 14.147 5.96647 13.5838 5.96647 12.8914C5.96647 12.1991 6.53929 11.6358 7.24339 11.6358C7.9475 11.6358 8.52032 12.1991 8.52032 12.8914C8.52032 13.5838 7.9475 14.147 7.24339 14.147ZM25.729 14.147C25.0248 14.147 24.452 13.5838 24.452 12.8914C24.452 12.1991 25.0249 11.6358 25.729 11.6358C26.4331 11.6358 27.0059 12.1991 27.0059 12.8914C27.0059 13.5838 26.4331 14.147 25.729 14.147ZM28.8857 12.0484C28.5111 10.6651 27.2381 9.64365 25.729 9.64365C24.2198 9.64365 22.9469 10.6651 22.5721 12.0484H10.4001C10.0255 10.6651 8.75254 9.64365 7.24339 9.64365C5.73425 9.64365 4.4613 10.6651 4.08657 12.0484H1.99219V8.13975C1.99219 7.84225 2.23417 7.60025 2.53167 7.60025H24.183L30.4445 8.64445C30.4541 8.64605 30.4637 8.64755 30.4734 8.64885C30.6428 8.67205 30.804 8.71935 30.9541 8.78655C30.5374 8.90575 30.232 9.28865 30.232 9.74365C30.232 10.2937 30.678 10.7397 31.2281 10.7397H32.0078V12.0485L28.8857 12.0484Z" fill="#050B20"/>
</svg>
