<svg width="34" height="23" viewBox="0 0 34 23" fill="none" xmlns="http://www.w3.org/2000/svg">
<path d="M32.8913 15.5246H31.7826V9.98124C31.7826 8.14714 30.2905 6.65514 28.4565 6.65514H24.8209L23.3616 2.27714C22.908 0.916879 21.6399 0.00292969 20.2061 0.00292969C20.0334 0.00292969 8.04731 0.00292969 7.76083 0.00292969C6.31543 0.00292969 5.08313 0.929889 4.62546 2.2203H3.32609C1.49208 2.2203 0 3.71238 0 5.54634V9.98124C0 11.8152 1.49208 13.3072 3.32609 13.3072H4.43481V15.5246H3.32609C2.71382 15.5246 2.21737 16.021 2.21737 16.6333C2.21737 17.2457 2.71376 17.7421 3.32609 17.7421C4.36442 17.7421 5.6104 17.7421 6.65218 17.7421C6.65218 20.1874 8.64164 22.1769 11.087 22.1769C13.5323 22.1769 15.5218 20.1874 15.5218 17.7421H20.6957C20.6957 20.1874 22.6852 22.1769 25.1305 22.1769C27.5759 22.1769 29.5653 20.1874 29.5653 17.7421C30.6074 17.7421 31.8538 17.7421 32.8914 17.7421C33.5037 17.7421 34.0001 17.2457 34.0001 16.6333C34.0001 16.021 33.5036 15.5246 32.8913 15.5246ZM4.43481 11.0898H3.32609C2.71475 11.0898 2.21737 10.5924 2.21737 9.98114V5.54634C2.21737 4.93494 2.71475 4.43764 3.32609 4.43764H4.43481C4.43481 5.14404 4.43481 10.4048 4.43481 11.0898ZM15.5217 2.2203H17.3696H20.2061C20.6841 2.2203 21.1068 2.52497 21.2579 2.97832L22.4834 6.65504H15.5217V2.2203ZM6.65218 3.32895C6.65218 2.71761 7.14956 2.22023 7.7609 2.22023H13.3044V6.65504H6.65218V3.32895ZM11.087 19.9594C9.86432 19.9594 8.86962 18.9647 8.86962 17.742C8.86962 16.5193 9.86432 15.5246 11.087 15.5246C12.3097 15.5246 13.3044 16.5193 13.3044 17.742C13.3044 18.9647 12.3097 19.9594 11.087 19.9594ZM25.1304 19.9594C23.9078 19.9594 22.9131 18.9647 22.9131 17.742C22.9131 16.5193 23.9078 15.5246 25.1304 15.5246C26.3531 15.5246 27.3478 16.5193 27.3478 17.742C27.3478 18.9647 26.3531 19.9594 25.1304 19.9594ZM29.5652 15.5246H28.9686C28.2005 14.2004 26.7683 13.3072 25.1304 13.3072C23.4926 13.3072 22.0604 14.2004 21.2923 15.5246H14.9251C14.1571 14.2004 12.7248 13.3072 11.087 13.3072C9.44914 13.3072 8.01689 14.2004 7.24884 15.5246H6.65225V12.1985V8.87244C8.46022 8.87244 27.2694 8.87244 28.4566 8.87244C29.0679 8.87244 29.5653 9.36984 29.5653 9.98124L29.5652 15.5246Z" fill="#050B20"/>
</svg>
