<svg width="19" height="19" viewBox="0 0 19 19" fill="none" xmlns="http://www.w3.org/2000/svg">
<g clip-path="url(#clip0_15_778)">
<path d="M15.27 1.86022H14.61V1.20022C14.61 1.00023 14.54 0.830225 14.4 0.690225C14.26 0.550225 14.09 0.480225 13.89 0.480225C13.69 0.480225 13.52 0.550225 13.38 0.690225C13.24 0.830225 13.17 1.00023 13.17 1.20022V1.86022H6.33V1.20022C6.33 1.00023 6.26 0.830225 6.12 0.690225C5.98 0.550225 5.81 0.480225 5.61 0.480225C5.41 0.480225 5.24 0.550225 5.1 0.690225C4.96 0.830225 4.89 1.00023 4.89 1.20022V1.86022H4.23C3.59 1.86022 3.01 2.02022 2.49 2.34022C1.97 2.66022 1.55 3.08022 1.23 3.60022C0.91 4.12022 0.75 4.70022 0.75 5.34022V15.0002C0.75 15.6402 0.91 16.2202 1.23 16.7402C1.55 17.2602 1.97 17.6802 2.49 18.0002C3.01 18.3202 3.59 18.4802 4.23 18.4802H15.27C15.91 18.4802 16.49 18.3202 17.01 18.0002C17.53 17.6802 17.95 17.2602 18.27 16.7402C18.59 16.2202 18.75 15.6402 18.75 15.0002V5.34022C18.75 4.70022 18.59 4.12022 18.27 3.60022C17.95 3.08022 17.53 2.66022 17.01 2.34022C16.49 2.02022 15.91 1.86022 15.27 1.86022ZM4.23 3.30022H4.89V4.62022C4.89 4.82022 4.96 4.99022 5.1 5.13022C5.24 5.27022 5.41 5.34022 5.61 5.34022C5.81 5.34022 5.98 5.27022 6.12 5.13022C6.26 4.99022 6.33 4.82022 6.33 4.62022V3.30022H13.17V4.62022C13.17 4.82022 13.24 4.99022 13.38 5.13022C13.52 5.27022 13.69 5.34022 13.89 5.34022C14.09 5.34022 14.26 5.27022 14.4 5.13022C14.54 4.99022 14.61 4.82022 14.61 4.62022V3.30022H15.27C15.83 3.30022 16.32 3.50022 16.74 3.90022C17.16 4.30022 17.37 4.78022 17.37 5.34022V6.00022H2.13V5.34022C2.13 4.78022 2.34 4.30022 2.76 3.90022C3.18 3.50022 3.67 3.30022 4.23 3.30022ZM15.27 17.1002H4.23C3.67 17.1002 3.18 16.8902 2.76 16.4702C2.34 16.0502 2.13 15.5602 2.13 15.0002V7.44022H17.37V15.0002C17.37 15.5602 17.16 16.0502 16.74 16.4702C16.32 16.8902 15.83 17.1002 15.27 17.1002ZM6.99 10.2002C6.99 10.4002 6.92 10.5602 6.78 10.6802C6.64 10.8002 6.47 10.8602 6.27 10.8602H4.89C4.69 10.8602 4.53 10.8002 4.41 10.6802C4.29 10.5602 4.23 10.4002 4.23 10.2002C4.23 10.0002 4.29 9.83022 4.41 9.69022C4.53 9.55022 4.69 9.48022 4.89 9.48022H6.27C6.47 9.48022 6.64 9.55022 6.78 9.69022C6.92 9.83022 6.99 10.0002 6.99 10.2002ZM15.27 10.2002C15.27 10.4002 15.21 10.5602 15.09 10.6802C14.97 10.8002 14.81 10.8602 14.61 10.8602H13.23C13.03 10.8602 12.86 10.8002 12.72 10.6802C12.58 10.5602 12.51 10.4002 12.51 10.2002C12.51 10.0002 12.58 9.83022 12.72 9.69022C12.86 9.55022 13.03 9.48022 13.23 9.48022H14.61C14.81 9.48022 14.97 9.55022 15.09 9.69022C15.21 9.83022 15.27 10.0002 15.27 10.2002ZM11.13 10.2002C11.13 10.4002 11.06 10.5602 10.92 10.6802C10.78 10.8002 10.61 10.8602 10.41 10.8602H9.03C8.87 10.8602 8.72 10.8002 8.58 10.6802C8.44 10.5602 8.37 10.4002 8.37 10.2002C8.37 10.0002 8.44 9.83022 8.58 9.69022C8.72 9.55022 8.87 9.48022 9.03 9.48022H10.41C10.61 9.48022 10.78 9.55022 10.92 9.69022C11.06 9.83022 11.13 10.0002 11.13 10.2002ZM6.99 14.3402C6.99 14.5402 6.92 14.7102 6.78 14.8502C6.64 14.9902 6.47 15.0602 6.27 15.0602H4.89C4.69 15.0602 4.53 14.9902 4.41 14.8502C4.29 14.7102 4.23 14.5402 4.23 14.3402C4.23 14.1402 4.29 13.9702 4.41 13.8302C4.53 13.6902 4.69 13.6202 4.89 13.6202H6.27C6.47 13.6202 6.64 13.6902 6.78 13.8302C6.92 13.9702 6.99 14.1402 6.99 14.3402ZM15.27 14.3402C15.27 14.5402 15.21 14.7102 15.09 14.8502C14.97 14.9902 14.81 15.0602 14.61 15.0602H13.23C13.03 15.0602 12.86 14.9902 12.72 14.8502C12.58 14.7102 12.51 14.5402 12.51 14.3402C12.51 14.1402 12.58 13.9702 12.72 13.8302C12.86 13.6902 13.03 13.6202 13.23 13.6202H14.61C14.81 13.6202 14.97 13.6902 15.09 13.8302C15.21 13.9702 15.27 14.1402 15.27 14.3402ZM11.13 14.3402C11.13 14.5402 11.06 14.7102 10.92 14.8502C10.78 14.9902 10.61 15.0602 10.41 15.0602H9.03C8.87 15.0602 8.72 14.9902 8.58 14.8502C8.44 14.7102 8.37 14.5402 8.37 14.3402C8.37 14.1402 8.44 13.9702 8.58 13.8302C8.72 13.6902 8.87 13.6202 9.03 13.6202H10.41C10.61 13.6202 10.78 13.6902 10.92 13.8302C11.06 13.9702 11.13 14.1402 11.13 14.3402Z" fill="#050B20"/>
</g>
<defs>
<clipPath id="clip0_15_778">
<rect width="18" height="18" fill="white" transform="matrix(1 0 0 -1 0.75 18.4802)"/>
</clipPath>
</defs>
</svg>
