<svg width="19" height="19" viewBox="0 0 19 19" fill="none" xmlns="http://www.w3.org/2000/svg">
<g clip-path="url(#clip0_15_772)">
<path d="M11.43 3.84022C11.43 3.68022 11.38 3.55022 11.28 3.45022C11.18 3.35022 11.05 3.30022 10.89 3.30022H5.25004C5.09004 3.30022 4.96004 3.35022 4.86004 3.45022C4.76004 3.55022 4.71004 3.68022 4.71004 3.84022V8.34022C4.71004 8.50022 4.76004 8.64022 4.86004 8.76022C4.96004 8.88022 5.09004 8.94022 5.25004 8.94022H10.89C11.05 8.94022 11.18 8.88022 11.28 8.76022C11.38 8.64022 11.43 8.50022 11.43 8.34022V3.84022ZM10.29 7.80022H5.79004V4.44022H10.29V7.80022ZM17.91 4.44022L15.63 3.36022C15.51 3.28022 15.37 3.26022 15.21 3.30022C15.05 3.34022 14.94 3.43022 14.88 3.57022C14.82 3.71022 14.81 3.86022 14.85 4.02022C14.89 4.18022 14.99 4.28022 15.15 4.32022L15.99 4.80022L15.93 4.98022C15.93 5.34022 16.04 5.66022 16.26 5.94022C16.48 6.22022 16.75 6.42022 17.07 6.54022V13.3802C17.07 13.5402 17.01 13.6802 16.89 13.8002C16.77 13.9202 16.64 13.9802 16.5 13.9802C16.36 13.9802 16.23 13.9202 16.11 13.8002C15.99 13.6802 15.93 13.5402 15.93 13.3802V8.88022C15.93 8.24022 15.7 7.66022 15.24 7.14022C14.78 6.62022 14.27 6.30022 13.71 6.18022V2.70022C13.71 2.10022 13.49 1.58022 13.05 1.14022C12.61 0.700225 12.09 0.480225 11.49 0.480225H4.71004C4.11004 0.480225 3.58004 0.700225 3.12004 1.14022C2.66004 1.58022 2.43004 2.10022 2.43004 2.70022V15.3002L1.65004 15.7202C1.41004 15.8402 1.29004 16.0002 1.29004 16.2002V17.8802C1.29004 18.0402 1.35004 18.1802 1.47004 18.3002C1.59004 18.4202 1.73004 18.4802 1.89004 18.4802H14.25C14.41 18.4802 14.54 18.4202 14.64 18.3002C14.74 18.1802 14.79 18.0402 14.79 17.8802V16.2002C14.79 16.0002 14.69 15.8402 14.49 15.7202L13.71 15.3002V7.32022C13.99 7.44022 14.24 7.65022 14.46 7.95022C14.68 8.25022 14.79 8.56022 14.79 8.88022V13.3802C14.79 13.8602 14.96 14.2702 15.3 14.6102C15.64 14.9502 16.04 15.1202 16.5 15.1202C16.96 15.1202 17.36 14.9502 17.7 14.6102C18.04 14.2702 18.21 13.8602 18.21 13.3802V4.98022C18.21 4.74022 18.11 4.56022 17.91 4.44022ZM13.71 17.3402H2.43004V16.5602L3.27004 16.1402C3.47004 16.0602 3.57004 15.9002 3.57004 15.6602V2.70022C3.57004 2.42022 3.68004 2.17022 3.90004 1.95022C4.12004 1.73022 4.39004 1.62022 4.71004 1.62022H11.49C11.77 1.62022 12.02 1.73022 12.24 1.95022C12.46 2.17022 12.57 2.42022 12.57 2.70022V15.6602C12.57 15.9002 12.67 16.0602 12.87 16.1402L13.71 16.5602V17.3402Z" fill="#050B20"/>
</g>
<defs>
<clipPath id="clip0_15_772">
<rect width="18" height="18" fill="white" transform="matrix(1 0 0 -1 0.75 18.4802)"/>
</clipPath>
</defs>
</svg>
