<svg width="18" height="19" viewBox="0 0 18 19" fill="none" xmlns="http://www.w3.org/2000/svg">
<g clip-path="url(#clip0_15_769)">
<path d="M18 11.1002C18 13.1402 17.4 14.9602 16.2 16.5602C16.08 16.7202 15.92 16.8102 15.72 16.8302C15.52 16.8502 15.34 16.8002 15.18 16.6802C15.02 16.5602 14.93 16.4102 14.91 16.2302C14.89 16.0502 14.94 15.8802 15.06 15.7202C16.1 14.3602 16.62 12.8202 16.62 11.1002C16.62 9.74019 16.28 8.48019 15.6 7.32019C14.92 6.16019 13.99 5.24019 12.81 4.56019C11.63 3.88019 10.36 3.54019 9 3.54019C7.64 3.54019 6.37 3.88019 5.19 4.56019C4.01 5.24019 3.08 6.16019 2.4 7.32019C1.72 8.48019 1.38 9.74019 1.38 11.1002C1.38 12.8202 1.9 14.3602 2.94 15.7202C3.06 15.8802 3.11 16.0502 3.09 16.2302C3.07 16.4102 2.98 16.5602 2.82 16.6802C2.66 16.8002 2.48 16.8502 2.28 16.8302C2.08 16.8102 1.92 16.7202 1.8 16.5602C0.6 14.9602 0 13.1402 0 11.1002C0 9.50019 0.4 8.01019 1.2 6.63019C2 5.25019 3.09 4.16019 4.47 3.36019C5.85 2.56019 7.36 2.16019 9 2.16019C10.64 2.16019 12.15 2.56019 13.53 3.36019C14.91 4.16019 16 5.25019 16.8 6.63019C17.6 8.01019 18 9.50019 18 11.1002ZM13.44 6.90019C13.6 7.02019 13.68 7.18019 13.68 7.38019C13.68 7.58019 13.6 7.74019 13.44 7.86019L11.16 10.2002C11.36 10.5602 11.46 10.9402 11.46 11.3402C11.46 12.0202 11.22 12.6002 10.74 13.0802C10.26 13.5602 9.68 13.8002 9 13.8002C8.32 13.8002 7.74 13.5602 7.26 13.0802C6.78 12.6002 6.54 12.0202 6.54 11.3402C6.54 10.6602 6.78 10.0802 7.26 9.60019C7.74 9.12019 8.32 8.88019 9 8.88019C9.4 8.88019 9.78 8.98019 10.14 9.18019L12.48 6.90019C12.6 6.74019 12.76 6.66019 12.96 6.66019C13.16 6.66019 13.32 6.74019 13.44 6.90019ZM10.08 11.3402C10.08 11.0602 9.97 10.8202 9.75 10.6202C9.53 10.4202 9.28 10.3202 9 10.3202C8.72 10.3202 8.47 10.4202 8.25 10.6202C8.03 10.8202 7.92 11.0602 7.92 11.3402C7.92 11.6202 8.03 11.8702 8.25 12.0902C8.47 12.3102 8.72 12.4202 9 12.4202C9.28 12.4202 9.53 12.3102 9.75 12.0902C9.97 11.8702 10.08 11.6202 10.08 11.3402Z" fill="#050B20"/>
</g>
<defs>
<clipPath id="clip0_15_769">
<rect width="18" height="18" fill="white" transform="matrix(1 0 0 -1 0 18.4802)"/>
</clipPath>
</defs>
</svg>
