<svg width="18" height="19" viewBox="0 0 18 19" fill="none" xmlns="http://www.w3.org/2000/svg">
<path d="M2.99996 2.16029C2.43996 2.16029 1.95996 2.36029 1.55996 2.76029C1.15996 3.16029 0.959961 3.65029 0.959961 4.23029C0.959961 4.81029 1.15996 5.30029 1.55996 5.70029C1.95996 6.10029 2.43996 6.30029 2.99996 6.30029C3.55996 6.30029 4.03996 6.10029 4.43996 5.70029C4.83996 5.30029 5.03996 4.81029 5.03996 4.23029C5.03996 3.65029 4.83996 3.16029 4.43996 2.76029C4.03996 2.36029 3.55996 2.16029 2.99996 2.16029ZM2.99996 3.30029C3.23996 3.30029 3.45996 3.39029 3.65996 3.57029C3.85996 3.75029 3.95996 3.97029 3.95996 4.23029C3.95996 4.49029 3.85996 4.71029 3.65996 4.89029C3.45996 5.07029 3.23996 5.16029 2.99996 5.16029C2.75996 5.16029 2.53996 5.07029 2.33996 4.89029C2.13996 4.71029 2.03996 4.49029 2.03996 4.23029C2.03996 3.97029 2.13996 3.75029 2.33996 3.57029C2.53996 3.39029 2.75996 3.30029 2.99996 3.30029ZM2.99996 12.6603C2.43996 12.6603 1.95996 12.8603 1.55996 13.2603C1.15996 13.6603 0.959961 14.1503 0.959961 14.7303C0.959961 15.3103 1.15996 15.8003 1.55996 16.2003C1.95996 16.6003 2.43996 16.8003 2.99996 16.8003C3.55996 16.8003 4.03996 16.6003 4.43996 16.2003C4.83996 15.8003 5.03996 15.3103 5.03996 14.7303C5.03996 14.1503 4.83996 13.6603 4.43996 13.2603C4.03996 12.8603 3.55996 12.6603 2.99996 12.6603ZM2.99996 13.8003C3.23996 13.8003 3.45996 13.8903 3.65996 14.0703C3.85996 14.2503 3.95996 14.4703 3.95996 14.7303C3.95996 14.9903 3.85996 15.2103 3.65996 15.3903C3.45996 15.5703 3.23996 15.6603 2.99996 15.6603C2.75996 15.6603 2.53996 15.5703 2.33996 15.3903C2.13996 15.2103 2.03996 14.9903 2.03996 14.7303C2.03996 14.4703 2.13996 14.2503 2.33996 14.0703C2.53996 13.8903 2.75996 13.8003 2.99996 13.8003ZM8.99996 2.16029C8.43996 2.16029 7.95996 2.36029 7.55996 2.76029C7.15996 3.16029 6.95996 3.65029 6.95996 4.23029C6.95996 4.81029 7.15996 5.30029 7.55996 5.70029C7.95996 6.10029 8.43996 6.30029 8.99996 6.30029C9.55996 6.30029 10.04 6.10029 10.44 5.70029C10.84 5.30029 11.04 4.81029 11.04 4.23029C11.04 3.65029 10.84 3.16029 10.44 2.76029C10.04 2.36029 9.55996 2.16029 8.99996 2.16029ZM8.99996 3.30029C9.23996 3.30029 9.45996 3.39029 9.65996 3.57029C9.85996 3.75029 9.95996 3.97029 9.95996 4.23029C9.95996 4.49029 9.85996 4.71029 9.65996 4.89029C9.45996 5.07029 9.23996 5.16029 8.99996 5.16029C8.75996 5.16029 8.53996 5.07029 8.33996 4.89029C8.13996 4.71029 8.03996 4.49029 8.03996 4.23029C8.03996 3.97029 8.13996 3.75029 8.33996 3.57029C8.53996 3.39029 8.75996 3.30029 8.99996 3.30029ZM8.99996 12.6603C8.43996 12.6603 7.95996 12.8603 7.55996 13.2603C7.15996 13.6603 6.95996 14.1503 6.95996 14.7303C6.95996 15.3103 7.15996 15.8003 7.55996 16.2003C7.95996 16.6003 8.43996 16.8003 8.99996 16.8003C9.55996 16.8003 10.04 16.6003 10.44 16.2003C10.84 15.8003 11.04 15.3103 11.04 14.7303C11.04 14.1503 10.84 13.6603 10.44 13.2603C10.04 12.8603 9.55996 12.6603 8.99996 12.6603ZM8.99996 13.8003C9.23996 13.8003 9.45996 13.8903 9.65996 14.0703C9.85996 14.2503 9.95996 14.4703 9.95996 14.7303C9.95996 14.9903 9.85996 15.2103 9.65996 15.3903C9.45996 15.5703 9.23996 15.6603 8.99996 15.6603C8.75996 15.6603 8.53996 15.5703 8.33996 15.3903C8.13996 15.2103 8.03996 14.9903 8.03996 14.7303C8.03996 14.4703 8.13996 14.2503 8.33996 14.0703C8.53996 13.8903 8.75996 13.8003 8.99996 13.8003ZM15 2.16029C14.44 2.16029 13.96 2.36029 13.56 2.76029C13.16 3.16029 12.96 3.65029 12.96 4.23029C12.96 4.81029 13.16 5.30029 13.56 5.70029C13.96 6.10029 14.44 6.30029 15 6.30029C15.56 6.30029 16.04 6.10029 16.44 5.70029C16.84 5.30029 17.04 4.81029 17.04 4.23029C17.04 3.65029 16.84 3.16029 16.44 2.76029C16.04 2.36029 15.56 2.16029 15 2.16029ZM15 3.30029C15.24 3.30029 15.46 3.39029 15.66 3.57029C15.86 3.75029 15.96 3.97029 15.96 4.23029C15.96 4.49029 15.86 4.71029 15.66 4.89029C15.46 5.07029 15.24 5.16029 15 5.16029C14.76 5.16029 14.54 5.07029 14.34 4.89029C14.14 4.71029 14.04 4.49029 14.04 4.23029C14.04 3.97029 14.14 3.75029 14.34 3.57029C14.54 3.39029 14.76 3.30029 15 3.30029ZM15 12.6603C14.44 12.6603 13.96 12.8603 13.56 13.2603C13.16 13.6603 12.96 14.1503 12.96 14.7303C12.96 15.3103 13.16 15.8003 13.56 16.2003C13.96 16.6003 14.44 16.8003 15 16.8003C15.56 16.8003 16.04 16.6003 16.44 16.2003C16.84 15.8003 17.04 15.3103 17.04 14.7303C17.04 14.1503 16.84 13.6603 16.44 13.2603C16.04 12.8603 15.56 12.6603 15 12.6603ZM15 13.8003C15.24 13.8003 15.46 13.8903 15.66 14.0703C15.86 14.2503 15.96 14.4703 15.96 14.7303C15.96 14.9903 15.86 15.2103 15.66 15.3903C15.46 15.5703 15.24 15.6603 15 15.6603C14.76 15.6603 14.54 15.5703 14.34 15.3903C14.14 15.2103 14.04 14.9903 14.04 14.7303C14.04 14.4703 14.14 14.2503 14.34 14.0703C14.54 13.8903 14.76 13.8003 15 13.8003ZM2.45996 5.70029V13.2003C2.45996 13.3603 2.50996 13.5003 2.60996 13.6203C2.70996 13.7403 2.83996 13.8003 2.99996 13.8003C3.15996 13.8003 3.28996 13.7403 3.38996 13.6203C3.48996 13.5003 3.53996 13.3803 3.53996 13.2603V5.70029C3.53996 5.58029 3.48996 5.46029 3.38996 5.34029C3.28996 5.22029 3.15996 5.16029 2.99996 5.16029C2.83996 5.16029 2.70996 5.22029 2.60996 5.34029C2.50996 5.46029 2.45996 5.58029 2.45996 5.70029ZM8.45996 5.70029V13.2003C8.45996 13.3603 8.50996 13.5003 8.60996 13.6203C8.70996 13.7403 8.83996 13.8003 8.99996 13.8003C9.15996 13.8003 9.28996 13.7403 9.38996 13.6203C9.48996 13.5003 9.53996 13.3803 9.53996 13.2603V5.70029C9.53996 5.58029 9.48996 5.46029 9.38996 5.34029C9.28996 5.22029 9.15996 5.16029 8.99996 5.16029C8.83996 5.16029 8.70996 5.22029 8.60996 5.34029C8.50996 5.46029 8.45996 5.58029 8.45996 5.70029ZM14.46 5.70029V8.70029C14.46 8.78029 14.44 8.84029 14.4 8.88029C14.36 8.92029 14.32 8.94029 14.28 8.94029H2.99996C2.83996 8.94029 2.70996 8.99029 2.60996 9.09029C2.50996 9.19029 2.45996 9.32029 2.45996 9.48029C2.45996 9.64029 2.50996 9.77029 2.60996 9.87029C2.70996 9.97029 2.83996 10.0203 2.99996 10.0203H14.28C14.64 10.0203 14.94 9.90029 15.18 9.66029C15.42 9.42029 15.54 9.10029 15.54 8.70029V5.76029C15.54 5.60029 15.49 5.46029 15.39 5.34029C15.29 5.22029 15.16 5.16029 15 5.16029C14.84 5.16029 14.71 5.22029 14.61 5.34029C14.51 5.46029 14.46 5.58029 14.46 5.70029Z" fill="#050B20"/>
</svg>
